<svg width="21" height="20" viewBox="0 0 21 20" fill="none" xmlns="http://www.w3.org/2000/svg">
<rect x="0.987549" width="20" height="20" rx="2" fill="white"/>
<path d="M18.9875 11.5834V17H15.7726V11.9462C15.7726 10.6766 15.3076 9.81017 14.1438 9.81017C13.2555 9.81017 12.7268 10.3941 12.4942 10.9589C12.4094 11.1608 12.3876 11.4419 12.3876 11.7245V17H9.17153C9.17153 17 9.21485 8.44046 9.17153 7.55362H12.3873V8.89261C12.3808 8.90262 12.3723 8.91342 12.3662 8.92313H12.3873V8.89261C12.8145 8.24987 13.5775 7.3317 15.2854 7.3317C17.4013 7.33167 18.9875 8.68183 18.9875 11.5834ZM5.80739 3C4.70718 3 3.98755 3.70487 3.98755 4.63179C3.98755 5.53852 4.68636 6.26478 5.7647 6.26478H5.78619C6.90771 6.26478 7.60519 5.53865 7.60519 4.63179C7.58406 3.70487 6.90771 3 5.80739 3ZM4.17855 17H7.3934V7.55362H4.17855V17Z" fill="#0077B7"/>
</svg>
