<svg width="61" height="52" viewBox="0 0 61 52" fill="none" xmlns="http://www.w3.org/2000/svg">
<path d="M55.0255 32.0125V4.58336C55.0255 2.60761 53.4313 1 51.472 1H9.52801C7.56873 1 5.97452 2.60761 5.97452 4.58336V32.0125H3V33.0439C3 35.2254 4.75979 37 6.9228 37H54.0772C56.2402 37 58 35.2254 58 33.0439V32.0125H55.0255ZM7.13189 4.58336C7.13189 3.251 8.20676 2.1671 9.52801 2.1671H51.472C52.7932 2.1671 53.8681 3.251 53.8681 4.58336V31.8979H7.13189V4.58336ZM54.0772 35.8329H6.9228C5.44303 35.8329 4.23084 34.655 4.16048 33.1796H56.8395C56.7692 34.655 55.557 35.8329 54.0772 35.8329Z" fill="#6699CC" stroke="#6699CC" stroke-width="1.3"/>
<path d="M43.3699 10.2414H37.1924V7.80156C37.1924 6.24417 36.4202 5.56934 34.8243 5.56934H26.2787C24.7343 5.56934 23.8077 6.2961 23.8077 7.80156V10.2414H17.4757C16.1372 10.2414 15.571 10.8644 15.571 12.1622V26.8533C15.571 28.1511 16.2917 28.9298 17.6301 28.9298H43.3699C44.7084 28.9298 45.4291 28.5145 45.4291 27.2167V12.1622C45.4291 10.8644 44.7084 10.2414 43.3699 10.2414ZM25.3521 7.80156C25.3521 7.12669 25.6095 7.12669 26.2787 7.12669H34.8243C35.4936 7.12669 35.648 7.17862 35.648 7.80156V10.2414H25.3521V7.80156ZM43.3699 27.3725H18.042C17.4757 27.3725 17.1154 26.8533 17.1154 26.2823V12.6813C17.1154 12.1103 17.3728 11.7988 17.9905 11.7988H43.3699C43.9362 11.7988 43.8847 12.1103 43.8847 12.6813V26.2823C43.8847 26.8533 43.9362 27.3725 43.3699 27.3725Z" fill="#6699CC" stroke="#6699CC" stroke-width="1.3"/>
<path d="M1.592 45.124H0.548V49H1.592V45.124ZM1.064 43.184C0.688 43.184 0.4 43.48 0.4 43.856C0.4 44.232 0.688 44.52 1.064 44.52C1.44 44.52 1.732 44.232 1.732 43.856C1.732 43.48 1.44 43.184 1.064 43.184ZM5.82063 45.392C5.30463 45.14 4.82063 45.024 4.20063 45.024C3.18063 45.024 2.56463 45.496 2.56463 46.292C2.56463 46.952 3.00863 47.344 3.90463 47.468L4.22063 47.512C4.66863 47.576 4.86463 47.68 4.86463 47.868C4.86463 48.096 4.63263 48.232 4.14863 48.232C3.56463 48.232 3.16063 48.072 2.82863 47.852L2.41663 48.644C2.92063 49 3.61263 49.1 4.14062 49.1C5.26463 49.1 5.92063 48.584 5.92063 47.784C5.92063 47.128 5.45263 46.752 4.61263 46.624L4.26863 46.572C3.91663 46.52 3.63663 46.464 3.63663 46.24C3.63663 46.028 3.83663 45.888 4.23263 45.888C4.66863 45.892 5.16063 46.052 5.46863 46.204L5.82063 45.392ZM11.5006 45.124H10.0966V43.972H9.05263V45.124H8.30463V46.052H9.05263V47.552C9.05263 48.556 9.54463 49.1 10.5046 49.1C11.0566 49.1 11.4486 48.924 11.7886 48.692L11.4046 47.876C11.1926 48.004 10.9246 48.128 10.6766 48.128C10.3526 48.128 10.0966 47.952 10.0966 47.468V46.052H11.5006V45.124ZM13.467 43.236H12.423V49H13.467V46.876C13.467 46.292 13.839 46 14.287 46C14.763 46 15.043 46.308 15.043 46.868V49H16.087V46.532C16.087 45.632 15.459 45.02 14.579 45.02C14.155 45.02 13.743 45.156 13.467 45.54V43.236ZM18.1936 45.124H17.1496V49H18.1936V45.124ZM17.6656 43.184C17.2896 43.184 17.0016 43.48 17.0016 43.856C17.0016 44.232 17.2896 44.52 17.6656 44.52C18.0416 44.52 18.3336 44.232 18.3336 43.856C18.3336 43.48 18.0416 43.184 17.6656 43.184ZM22.4222 45.392C21.9062 45.14 21.4222 45.024 20.8022 45.024C19.7822 45.024 19.1662 45.496 19.1662 46.292C19.1662 46.952 19.6102 47.344 20.5062 47.468L20.8222 47.512C21.2702 47.576 21.4662 47.68 21.4662 47.868C21.4662 48.096 21.2342 48.232 20.7502 48.232C20.1662 48.232 19.7622 48.072 19.4302 47.852L19.0182 48.644C19.5222 49 20.2142 49.1 20.7422 49.1C21.8662 49.1 22.5222 48.584 22.5222 47.784C22.5222 47.128 22.0542 46.752 21.2142 46.624L20.8702 46.572C20.5182 46.52 20.2382 46.464 20.2382 46.24C20.2382 46.028 20.4382 45.888 20.8342 45.888C21.2702 45.892 21.7622 46.052 22.0702 46.204L22.4222 45.392ZM29.1374 45.124H28.1174V45.552C27.8614 45.236 27.4894 45.02 26.9574 45.02C25.8894 45.02 25.0814 45.896 25.0814 47.06C25.0814 48.224 25.8894 49.1 26.9574 49.1C27.4894 49.1 27.8654 48.884 28.1174 48.572V49H29.1374V45.124ZM27.1494 45.992C27.7454 45.992 28.1494 46.448 28.1494 47.06C28.1494 47.672 27.7454 48.128 27.1494 48.128C26.5374 48.128 26.1494 47.652 26.1494 47.06C26.1494 46.468 26.5374 45.992 27.1494 45.992ZM34.3161 45.02C33.8401 45.02 33.4681 45.184 33.2241 45.548V45.124H32.2121V49H33.2561V46.888C33.2561 46.312 33.5881 46.016 34.0721 46.016C34.2841 46.016 34.5321 46.064 34.7041 46.14L34.8601 45.104C34.7161 45.052 34.5401 45.02 34.3161 45.02ZM37.1586 45.02C35.9986 45.02 35.1986 45.852 35.1986 47.072C35.1986 48.292 36.0226 49.1 37.2106 49.1C37.8626 49.1 38.4226 48.916 38.8626 48.512L38.2506 47.84C37.9706 48.076 37.6066 48.212 37.2706 48.212C36.7786 48.212 36.3866 47.968 36.2746 47.408H39.0226C39.0346 47.32 39.0426 47.176 39.0426 47.056C39.0386 45.848 38.2746 45.02 37.1586 45.02ZM37.1506 45.92C37.5986 45.92 37.8986 46.2 37.9946 46.696H36.2786C36.3706 46.216 36.6586 45.92 37.1506 45.92ZM43.7078 45.124H42.6878V45.552C42.4318 45.236 42.0598 45.02 41.5278 45.02C40.4598 45.02 39.6518 45.896 39.6518 47.06C39.6518 48.224 40.4598 49.1 41.5278 49.1C42.0598 49.1 42.4358 48.884 42.6878 48.572V49H43.7078V45.124ZM41.7198 45.992C42.3158 45.992 42.7198 46.448 42.7198 47.06C42.7198 47.672 42.3158 48.128 41.7198 48.128C41.1078 48.128 40.7198 47.652 40.7198 47.06C40.7198 46.468 41.1078 45.992 41.7198 45.992ZM45.8498 43.24H44.8058V49H45.8498V43.24ZM49.983 45.124H48.939V49.308C48.939 49.604 48.803 49.712 48.627 49.712C48.527 49.712 48.435 49.696 48.347 49.664L48.191 50.58C48.339 50.644 48.591 50.684 48.779 50.684C49.495 50.684 49.983 50.216 49.983 49.368V45.124ZM49.451 43.184C49.075 43.184 48.787 43.48 48.787 43.856C48.787 44.232 49.075 44.52 49.451 44.52C49.827 44.52 50.119 44.232 50.119 43.856C50.119 43.48 49.827 43.184 49.451 43.184ZM52.9313 45.02C51.7273 45.02 50.8393 45.892 50.8393 47.06C50.8393 48.228 51.7273 49.1 52.9313 49.1C54.1393 49.1 55.0312 48.228 55.0312 47.06C55.0312 45.892 54.1393 45.02 52.9313 45.02ZM52.9313 45.992C53.5193 45.992 53.9633 46.432 53.9633 47.06C53.9633 47.688 53.5193 48.128 52.9313 48.128C52.3433 48.128 51.9033 47.688 51.9033 47.06C51.9033 46.432 52.3433 45.992 52.9313 45.992ZM58.0599 45.02C57.5399 45.02 57.1759 45.224 56.9239 45.528V43.24H55.8839V49H56.9039V48.572C57.1559 48.884 57.5279 49.1 58.0639 49.1C59.1319 49.1 59.9399 48.224 59.9399 47.06C59.9399 45.896 59.1319 45.02 58.0599 45.02ZM57.8679 45.992C58.4839 45.992 58.8679 46.468 58.8679 47.06C58.8679 47.652 58.4839 48.128 57.8679 48.128C57.2759 48.128 56.8719 47.672 56.8719 47.06C56.8719 46.448 57.2759 45.992 57.8679 45.992Z" fill="#6699CC"/>
</svg>
