<svg width="20" height="20" viewBox="0 0 20 20" fill="none" xmlns="http://www.w3.org/2000/svg">
<path fill-rule="evenodd" clip-rule="evenodd" d="M18 0H2C0.9 0 0 0.9 0 2V18C0 19.1 0.9 20 2 20H18C19.1 20 20 19.1 20 18V2C20 0.9 19.1 0 18 0ZM15.7 7.29999C15.6 11.9 12.7 15.1 8.3 15.3C6.5 15.4 5.2 14.8 4 14.1C5.3 14.3 7 13.8 7.9 13C6.6 12.9 5.8 12.2 5.4 11.1C5.8 11.2 6.2 11.1 6.5 11.1C5.3 10.7 4.5 9.99999 4.4 8.39999C4.7 8.59999 5.1 8.69999 5.5 8.69999C4.6 8.19999 4 6.29999 4.7 5.09999C6 6.49999 7.6 7.69999 10.2 7.89999C9.5 5.09999 13.3 3.59999 14.8 5.49999C15.5 5.39999 16 5.09999 16.5 4.89999C16.3 5.59999 15.9 5.99999 15.4 6.39999C15.9 6.29999 16.4 6.19999 16.8 5.99999C16.7 6.49999 16.2 6.89999 15.7 7.29999Z" fill="white"/>
</svg>
